PathFileType	4	(X/Y/Z)	/Users/itak/Documents/Research/Walk-IL/dataset/trc/00505_00183.trc
DataRate	CameraRate	NumFrames	NumMarkers	Units	OrigDataRate	OrigDataStartFrame	OrigNumFrames
100.000000	100.000000	4	53	mm	100.000000	230	369
Frame#	Time	RPSI			LPSI			L3			STRN			T10			C7			CLAV			RBAK			LBAK			LSHO			LUPA			LAEL			LAOL			LWTS			LWPS			LFRA			LIFD			LHPS			LHTS			RSHO			RUPA			RAEL			RAOL			RWTS			RWPS			RFRA			RIFD			RHTS			RHPS			RBHD			LFHD			RFHD			LBHD			LHIP			RHIP			RASI			LASI			LKNE			LTHI			LANK			LTIP			LTOE			LMT1			LMT5			LHEE			RKNE			RTHI			RANK			RTIP			RTOE			RMT1			RMT5			RHEE			
		X1	Y1	Z1	X2	Y2	Z2	X3	Y3	Z3	X4	Y4	Z4	X5	Y5	Z5	X6	Y6	Z6	X7	Y7	Z7	X8	Y8	Z8	X9	Y9	Z9	X10	Y10	Z10	X11	Y11	Z11	X12	Y12	Z12	X13	Y13	Z13	X14	Y14	Z14	X15	Y15	Z15	X16	Y16	Z16	X17	Y17	Z17	X18	Y18	Z18	X19	Y19	Z19	X20	Y20	Z20	X21	Y21	Z21	X22	Y22	Z22	X23	Y23	Z23	X24	Y24	Z24	X25	Y25	Z25	X26	Y26	Z26	X27	Y27	Z27	X28	Y28	Z28	X29	Y29	Z29	X30	Y30	Z30	X31	Y31	Z31	X32	Y32	Z32	X33	Y33	Z33	X34	Y34	Z34	X35	Y35	Z35	X36	Y36	Z36	X37	Y37	Z37	X38	Y38	Z38	X39	Y39	Z39	X40	Y40	Z40	X41	Y41	Z41	X42	Y42	Z42	X43	Y43	Z43	X44	Y44	Z44	X45	Y45	Z45	X46	Y46	Z46	X47	Y47	Z47	X48	Y48	Z48	X49	Y49	Z49	X50	Y50	Z50	X51	Y51	Z51	X52	Y52	Z52	X53	Y53	Z53	

231	2.3	672.122802734375	911.2532958984375	593.5916137695312	722.9312744140625	891.8046875	480.5256042480469	701.3369750976562	983.4082641601562	521.8263549804688	911.7052001953125	1141.383178710938	608.7636108398438	695.10009765625	1090.924194335938	515.4893798828125	746.0521850585938	1321.169799804688	525.5230712890625	881.5609741210938	1236.339233398438	591.2718505859375	661.523681640625	1203.784912109375	587.7750854492188	759.310546875	1261.58251953125	437.5361633300781	881.1473388671875	1299.379638671875	408.9218444824219	883.1435546875	1171.371948242188	350.8967895507812	878.80810546875	969.6939697265625	326.5068664550781	781.2696533203125	960.2177734375	350.4779052734375	996.9108276367188	851.1197509765625	444.7666015625	952.370361328125	788.8856201171875	389.4478454589844	913.6231079101562	912.379150390625	350.4078979492188	1037.342651367188	700.732666015625	481.1685485839844	986.1416625976562	748.9810791015625	404.3595886230469	1032.63134765625	776.432861328125	442.5457153320312	732.9013671875	1317.095581054688	686.4580688476562	687.483154296875	1253.955932617188	730.0752563476562	640.3991088867188	996.7448120117188	777.3619384765625	616.1143798828125	966.0341186523438	723.4668579101562	824.9067993164062	897.8389282226562	834.7489624023438	758.9163818359375	839.63134765625	853.8807373046875	659.1843872070312	953.2029418945312	794.1251220703125	895.8530883789062	758.1614379882812	874.529052734375	868.2352294921875	823.0521850585938	885.0235595703125	805.573974609375	790.3640747070312	882.2381591796875	737.0144653320312	1467.025268554688	607.4470825195312	900.1709594726562	1543.66796875	521.0928955078125	845.4677734375	1547.638061523438	635.6265869140625	793.6280517578125	1453.995483398438	458.6498718261719	881.5209350585938	818.224365234375	416.7922973632812	724.4425048828125	833.4723510742188	763.8124389648438	836.1453247070312	881.4852294921875	734.6354370117188	933.0405883789062	869.9952392578125	512.9212036132812	1099.024536132812	491.1681518554688	543.7979736328125	1021.955444335938	614.0324096679688	495.2965393066406	831.0756225585938	210.2592315673828	377.1475524902344	1031.266967773438	389.2212524414062	492.7998046875	947.506591796875	69.57473754882812	449.5849304199219	881.901123046875	106.5552673339844	470.6080322265625	907.7498168945312	136.885009765625	373.8245849609375	776.840576171875	224.3390350341797	428.2339172363281	841.2958374023438	452.6556091308594	709.8017578125	778.7451782226562	704.6953125	772.1546630859375	704.0422973632812	55.51615142822266	598.1050415039062	840.1129760742188	306.7338256835938	677.3094482421875	896.05615234375	31.17647933959961	660.08251953125	858.8491821289062	33.06882095336914	591.402099609375	794.383056640625	39.04409027099609	664.3094482421875	676.2576293945312	47.88960266113281	532.7319946289062	
232	2.31	687.0927734375	917.3132934570312	600.9796752929688	738.0896606445312	897.5819702148438	488.1795959472656	715.8380126953125	988.643310546875	531.3177490234375	927.9420166015625	1147.707397460938	612.0038452148438	708.9493408203125	1096.026123046875	525.4573364257812	759.2695922851562	1326.226196289062	533.9412231445312	897.0406494140625	1242.428466796875	595.1827392578125	677.120361328125	1208.896484375	599.4447631835938	769.93115234375	1266.631469726562	446.0710754394531	890.1732788085938	1304.988403320312	413.1692199707031	888.7553100585938	1178.962768554688	352.8407592773438	881.4952392578125	977.3385009765625	323.6132507324219	785.2982788085938	968.7741088867188	353.0522155761719	1003.641784667969	852.0985107421875	431.8335876464844	954.6373291015625	792.6607055664062	377.3355712890625	916.5143432617188	918.4942626953125	343.8806457519531	1041.302368164062	699.5308837890625	462.433837890625	988.0182495117188	751.3006591796875	389.2747192382812	1037.04541015625	776.3650512695312	425.8426513671875	751.7147827148438	1323.096801757812	694.8698120117188	708.5988159179688	1259.989013671875	741.2433471679688	669.0371704101562	1002.8896484375	794.4563598632812	642.7554321289062	970.8432006835938	742.5388793945312	858.9716796875	909.4766845703125	842.5689697265625	795.9798583984375	850.2160034179688	867.6796264648438	689.7346801757812	960.3419189453125	811.0783081054688	936.9612426757812	773.2704467773438	881.0243530273438	907.8195190429688	837.4901733398438	891.7286376953125	845.8912963867188	802.9006958007812	893.9592895507812	750.8695678710938	1471.53955078125	614.3177490234375	913.68115234375	1549.817626953125	528.7927856445312	859.085205078125	1552.124267578125	643.413818359375	807.3596801757812	1460.618774414062	465.3365783691406	897.0902709960938	824.6859130859375	424.5950012207031	738.056884765625	838.5689086914062	770.9627685546875	850.6309204101562	886.0536499023438	742.2427978515625	948.2332153320312	876.2111206054688	520.912109375	1119.316040039062	503.4265441894531	556.5311279296875	1039.705932617188	624.84375	506.2593688964844	875.4241943359375	192.9515686035156	399.8043518066406	1059.222534179688	393.3743591308594	508.4097290039062	1003.689758300781	65.90966796875	477.6563110351562	934.9783935546875	98.17040252685547	497.3025512695312	958.2595825195312	126.1916351318359	399.2745361328125	819.9207153320312	204.5350952148438	450.51806640625	844.6642456054688	455.6225280761719	712.6303100585938	789.95654296875	708.6249389648438	777.90185546875	704.3865966796875	58.4293327331543	599.8914794921875	841.548828125	309.3545532226562	680.3951416015625	895.96240234375	31.24673843383789	659.9534301757812	858.8046264648438	34.62908554077148	592.10205078125	794.7158813476562	39.59557723999023	665.130615234375	676.4312133789062	52.83217239379883	534.3958129882812	
233	2.32	702.003662109375	923.7207641601562	607.7664184570312	753.5416870117188	903.8145141601562	495.4040832519531	730.6456909179688	994.3413696289062	540.6300048828125	944.1550903320312	1154.351928710938	615.4574584960938	723.0709838867188	1101.58251953125	535.2935180664062	772.8103637695312	1331.705322265625	542.3462524414062	912.5704956054688	1248.842163085938	599.2457275390625	692.9503173828125	1214.474609375	610.8316040039062	780.9727172851562	1272.18212890625	454.6705017089844	899.6265258789062	1310.884521484375	417.8170776367188	894.42138671875	1187.039428710938	355.3874816894531	883.7793579101562	985.9363403320312	321.1990051269531	789.3124389648438	977.8958129882812	356.1863403320312	1009.648986816406	854.8555297851562	419.2045288085938	956.43310546875	797.9581909179688	366.1618347167969	918.9229125976562	925.7567749023438	337.8681030273438	1044.915893554688	700.7109985351562	444.4989624023438	989.4521484375	755.39306640625	375.1746520996094	1040.84033203125	778.4365844726562	409.6953125	770.5297241210938	1329.506103515625	703.0335693359375	729.6173095703125	1266.536865234375	751.8926391601562	697.31494140625	1009.974304199219	810.1824951171875	669.16162109375	976.5742797851562	760.33642578125	891.7500610351562	921.9017333984375	849.4049072265625	832.0203247070312	861.7689819335938	880.0527954101562	719.7598876953125	968.36767578125	826.5728759765625	976.4339599609375	789.3396606445312	886.3525390625	945.7116088867188	852.8375854492188	897.30322265625	884.9171142578125	816.428466796875	904.154541015625	764.6784057617188	1476.226684570312	621.1013793945312	926.9796142578125	1556.415771484375	536.367431640625	872.462158203125	1557.083984375	651.0479736328125	821.1151733398438	1467.398559570312	471.983154296875	913.0687255859375	831.7650756835938	432.4221801757812	751.0745239257812	844.0391845703125	777.6010131835938	864.6676635742188	891.0673828125	749.8565063476562	963.4152221679688	882.894775390625	529.1470947265625	1137.567504882812	514.5306396484375	568.2252197265625	1056.515258789062	635.3521118164062	516.8259887695312	920.6328735351562	175.6062927246094	423.465087890625	1085.927490234375	396.5263061523438	523.3098754882812	1059.313354492188	63.26482391357422	506.6759643554688	987.9737548828125	90.89272308349609	525.0089721679688	1008.967651367188	115.7199554443359	425.7516479492188	864.1092529296875	185.1512603759766	473.7906799316406	848.244384765625	459.3924865722656	716.3318481445312	800.4987182617188	713.1083984375	783.6414794921875	704.8489379882812	62.07939910888672	602.3074340820312	843.199951171875	312.8096618652344	684.4081420898438	895.9906616210938	31.30299186706543	659.922119140625	858.8491821289062	36.63279724121094	593.0606689453125	795.1455688476562	40.27964782714844	666.283203125	676.7744750976562	58.83556747436523	536.7064208984375	
234	2.33	716.8284301757812	930.314697265625	613.952392578125	769.301513671875	910.3267822265625	502.2101135253906	745.7648315429688	1000.355224609375	549.62109375	960.3361206054688	1161.119140625	619.2406616210938	737.4561767578125	1107.447875976562	544.906982421875	786.695068359375	1337.458374023438	550.7118530273438	928.1508178710938	1255.392211914062	603.547119140625	708.9619750976562	1220.350463867188	621.836669921875	792.505126953125	1278.111694335938	463.2817687988281	909.6578369140625	1316.91796875	422.9272155761719	900.3970336914062	1195.4267578125	358.6778564453125	885.8303833007812	995.3423461914062	319.4672546386719	793.4419555664062	987.480224609375	359.9522705078125	1014.998962402344	859.1693725585938	407.1928405761719	957.89892578125	804.5402221679688	356.0714111328125	920.97607421875	934.0057373046875	332.5944213867188	1048.44677734375	703.9588012695312	427.4413757324219	990.61279296875	761.0249633789062	362.2113037109375	1044.161010742188	782.4264526367188	394.3316955566406	789.2679443359375	1336.124267578125	710.9598999023438	750.4349975585938	1273.377197265625	762.0160522460938	725.06591796875	1017.673645019531	824.5218505859375	695.1007690429688	982.91845703125	776.8241577148438	923.1748046875	934.779052734375	855.4059448242188	866.8692016601562	873.9400634765625	891.0869750976562	749.0939331054688	976.958984375	840.60302734375	1014.113220214844	805.96533203125	890.721923828125	981.8001708984375	868.7021484375	901.9402465820312	922.4740600585938	830.5682373046875	912.9530639648438	778.4720458984375	1480.9658203125	627.8238525390625	940.1177368164062	1563.240600585938	543.80126953125	885.6561279296875	1562.365966796875	658.5191040039062	834.9131469726562	1474.122680664062	478.6116943359375	929.4088745117188	839.22216796875	440.3039855957031	763.5247192382812	849.79443359375	783.736083984375	878.2319946289062	896.4057006835938	757.4453125	978.5942993164062	889.8480834960938	537.6536865234375	1153.93359375	524.0768432617188	578.904296875	1072.449584960938	645.140625	526.9268188476562	966.5286254882812	158.6738891601562	448.0276184082031	1111.486572265625	398.5171508789062	537.5035400390625	1113.76318359375	61.62133407592773	536.609130859375	1040.301879882812	84.918701171875	553.5836791992188	1059.536499023438	105.6263809204102	453.2153015136719	909.1671752929688	166.8169708251953	497.8326416015625	852.2839965820312	463.7553405761719	721.0643310546875	810.4628295898438	718.0550537109375	789.4622802734375	705.4797973632812	66.47138977050781	605.4020385742188	845.2579345703125	316.9479064941406	689.4229736328125	896.1651611328125	31.33268165588379	660.0328979492188	859.014404296875	39.06563949584961	594.3082885742188	795.7044677734375	41.10952758789062	667.7870483398438	677.345458984375	65.87267303466797	539.7426147460938	
